<svg xmlns="http://www.w3.org/2000/svg" style="display: none;">
  <!-- checked -->
  <symbol id="checked" viewBox="0 0 24 24">
    <path d="M16 0H2C0.89 0 0 0.9 0 2V16C0 17.1 0.89 18 2 18H16C17.11 18 18 17.1 18 16V2C18 0.9 17.11 0 16 0ZM7 14L2 9L3.41 7.59L7 11.17L14.59 3.58L16 5L7 14Z" fill="white"/>
 </symbol>

   <!-- bell-outline -->
  <symbol id="bell-outline" viewBox="0 0 24 24">
    <path fill-rule="evenodd" clip-rule="evenodd" d="M2.5146 18L3.6946 16.818C4.0726 16.44 4.2806 15.938 4.2806 15.404V10.727C4.2806 9.36999 4.8706 8.07299 5.9006 7.17099C6.9386 6.26099 8.2606 5.86099 9.6376 6.04199C11.9646 6.35099 13.7196 8.45499 13.7196 10.937V15.404C13.7196 15.938 13.9276 16.44 14.3046 16.817L15.4856 18H2.5146ZM10.9996 20.341C10.9996 21.24 10.0836 22 8.9996 22C7.9156 22 6.9996 21.24 6.9996 20.341V20H10.9996V20.341ZM17.5206 17.208L15.7196 15.404V10.937C15.7196 7.45599 13.2176 4.49899 9.8996 4.05999C7.9776 3.80399 6.0376 4.39099 4.5826 5.66699C3.1186 6.94899 2.2806 8.79299 2.2806 10.727L2.2796 15.404L0.478603 17.208C0.00960291 17.678 -0.129397 18.377 0.124603 18.99C0.379603 19.604 0.972603 20 1.6366 20H4.9996V20.341C4.9996 22.359 6.7936 24 8.9996 24C11.2056 24 12.9996 22.359 12.9996 20.341V20H16.3626C17.0266 20 17.6186 19.604 17.8726 18.991C18.1276 18.377 17.9896 17.677 17.5206 17.208Z" fill="white"/>
		<circle cx="17.5" cy="6.5" r="6.5" fill="#CC1439"/>
		<path d="M17.5089 10.0994C17.0212 10.0994 16.5856 10.0154 16.2021 9.8473C15.8209 9.67921 15.5191 9.44602 15.2965 9.14773C15.0763 8.84706 14.958 8.49905 14.9414 8.10369H16.0565C16.0707 8.31913 16.1429 8.50616 16.2731 8.66477C16.4057 8.82102 16.5785 8.94176 16.7915 9.02699C17.0046 9.11222 17.2414 9.15483 17.5018 9.15483C17.7882 9.15483 18.0415 9.10511 18.2617 9.00568C18.4843 8.90625 18.6583 8.76776 18.7837 8.5902C18.9092 8.41027 18.9719 8.20312 18.9719 7.96875C18.9719 7.72491 18.9092 7.51065 18.7837 7.32599C18.6606 7.13897 18.4795 6.99219 18.2404 6.88565C18.0037 6.77912 17.7172 6.72585 17.381 6.72585H16.7667V5.83097H17.381C17.6509 5.83097 17.8877 5.78243 18.0913 5.68537C18.2972 5.5883 18.4582 5.45336 18.5742 5.28054C18.6902 5.10535 18.7482 4.90057 18.7482 4.66619C18.7482 4.44129 18.6973 4.24598 18.5955 4.08026C18.4961 3.91217 18.354 3.78078 18.1694 3.68608C17.9871 3.59138 17.7717 3.54403 17.5231 3.54403C17.2863 3.54403 17.065 3.58783 16.859 3.67543C16.6554 3.76065 16.4897 3.88376 16.3619 4.04474C16.234 4.20336 16.1654 4.39394 16.1559 4.61648H15.0941C15.1059 4.22348 15.2219 3.87784 15.4421 3.57955C15.6647 3.28125 15.9582 3.04806 16.3228 2.87997C16.6874 2.71188 17.0922 2.62784 17.5373 2.62784C18.0037 2.62784 18.4061 2.71899 18.7447 2.90128C19.0856 3.0812 19.3484 3.3215 19.533 3.62216C19.7201 3.92282 19.8124 4.25189 19.81 4.60938C19.8124 5.01657 19.6987 5.36222 19.4691 5.64631C19.2418 5.9304 18.9388 6.12098 18.56 6.21804V6.27486C19.043 6.34825 19.417 6.54001 19.6822 6.85014C19.9497 7.16027 20.0823 7.54498 20.0799 8.00426C20.0823 8.40436 19.971 8.76302 19.7461 9.08026C19.5236 9.39749 19.2193 9.64725 18.8335 9.82955C18.4476 10.0095 18.006 10.0994 17.5089 10.0994Z" fill="black"/>
</symbol>

  <!-- bell-fill -->
  <symbol id="bell-fill" viewBox="0 0 24 24">
    <g id="Fill bell">
		<path id="Mask" fill-rule="evenodd" clip-rule="evenodd" d="M14 18.3413C14 19.2403 13.084 20.0003 12 20.0003C10.916 20.0003 10 19.2403 10 18.3413V18.0003H14V18.3413ZM20.521 15.2073L18.72 13.4043V8.93629C18.72 5.45529 16.218 2.49929 12.899 2.05929C10.978 1.80429 9.038 2.39029 7.583 3.66629C6.119 4.94829 5.28 6.79329 5.28 8.72729L5.279 13.4043L3.479 15.2083C3.01 15.6773 2.871 16.3773 3.125 16.9903C3.38 17.6033 3.973 18.0003 4.637 18.0003H8V18.3413C8 20.3593 9.794 22.0003 12 22.0003C14.206 22.0003 16 20.3593 16 18.3413V18.0003H19.362C20.026 18.0003 20.619 17.6043 20.873 16.9903C21.128 16.3773 20.989 15.6773 20.521 15.2073Z" fill="white"/>
		<mask id="mask0_10881_17319" style="mask-type:luminance" maskUnits="userSpaceOnUse" x="2" y="2" width="19" height="21">
		<path id="Mask_2" fill-rule="evenodd" clip-rule="evenodd" d="M14 18.3413C14 19.2403 13.084 20.0003 12 20.0003C10.916 20.0003 10 19.2403 10 18.3413V18.0003H14V18.3413ZM20.521 15.2073L18.72 13.4043V8.93629C18.72 5.45529 16.218 2.49929 12.899 2.05929C10.978 1.80429 9.038 2.39029 7.583 3.66629C6.119 4.94829 5.28 6.79329 5.28 8.72729L5.279 13.4043L3.479 15.2083C3.01 15.6773 2.871 16.3773 3.125 16.9903C3.38 17.6033 3.973 18.0003 4.637 18.0003H8V18.3413C8 20.3593 9.794 22.0003 12 22.0003C14.206 22.0003 16 20.3593 16 18.3413V18.0003H19.362C20.026 18.0003 20.619 17.6043 20.873 16.9903C21.128 16.3773 20.989 15.6773 20.521 15.2073Z" fill="white"/>
		</mask>
		<g mask="url(#mask0_10881_17319)">
		<g id="&#240;&#159;&#142;&#168; Color">
		<rect id="Base" width="24" height="24" fill="white"/>
		</g>
		</g>
		</g>
	</symbol>

  <!-- person -->
  <symbol id="person" viewBox="0 0 16 16">
    <path d="M7.99998 7.33431C8.5274 7.33431 9.04297 7.17791 9.4815 6.8849C9.92003 6.59188 10.2618 6.1754 10.4637 5.68813C10.6655 5.20086 10.7183 4.66469 10.6154 4.1474C10.5125 3.63012 10.2585 3.15497 9.8856 2.78203C9.51266 2.40909 9.0375 2.15511 8.52022 2.05222C8.00294 1.94932 7.46676 2.00213 6.97949 2.20397C6.49222 2.4058 6.07574 2.74759 5.78273 3.18612C5.48971 3.62465 5.33331 4.14023 5.33331 4.66764C5.33331 5.37489 5.61426 6.05317 6.11436 6.55326C6.61446 7.05336 7.29274 7.33431 7.99998 7.33431ZM7.99998 3.33431C8.26369 3.33431 8.52147 3.41251 8.74074 3.55902C8.96001 3.70553 9.1309 3.91376 9.23182 4.1574C9.33274 4.40103 9.35914 4.66912 9.30769 4.92776C9.25625 5.18641 9.12926 5.42398 8.94279 5.61045C8.75632 5.79692 8.51874 5.92391 8.2601 5.97536C8.00146 6.0268 7.73337 6.0004 7.48974 5.89948C7.2461 5.79857 7.03786 5.62767 6.89135 5.4084C6.74485 5.18914 6.66665 4.93135 6.66665 4.66764C6.66665 4.31402 6.80712 3.97488 7.05717 3.72484C7.30722 3.47479 7.64636 3.33431 7.99998 3.33431Z" fill="white"/>
		<path d="M7.99998 8.66748C6.7623 8.66748 5.57532 9.15915 4.70015 10.0343C3.82498 10.9095 3.33331 12.0965 3.33331 13.3341C3.33331 13.511 3.40355 13.6805 3.52858 13.8056C3.6536 13.9306 3.82317 14.0008 3.99998 14.0008C4.17679 14.0008 4.34636 13.9306 4.47138 13.8056C4.59641 13.6805 4.66665 13.511 4.66665 13.3341C4.66665 12.4501 5.01784 11.6022 5.64296 10.9771C6.26808 10.352 7.11592 10.0008 7.99998 10.0008C8.88403 10.0008 9.73188 10.352 10.357 10.9771C10.9821 11.6022 11.3333 12.4501 11.3333 13.3341C11.3333 13.511 11.4036 13.6805 11.5286 13.8056C11.6536 13.9306 11.8232 14.0008 12 14.0008C12.1768 14.0008 12.3464 13.9306 12.4714 13.8056C12.5964 13.6805 12.6666 13.511 12.6666 13.3341C12.6666 12.0965 12.175 10.9095 11.2998 10.0343C10.4246 9.15915 9.23766 8.66748 7.99998 8.66748Z" fill="white"/>
	</symbol>

	<!-- logout -->
  <symbol id="log-out" viewBox="0 0 16 16">
    <path d="M4.66669 4.00081C4.8435 4.00081 5.01307 3.93058 5.13809 3.80555C5.26312 3.68053 5.33335 3.51096 5.33335 3.33415C5.33335 3.15734 5.26312 2.98777 5.13809 2.86274C5.01307 2.73772 4.8435 2.66748 4.66669 2.66748H3.33335C3.15654 2.66748 2.98697 2.73772 2.86195 2.86274C2.73693 2.98777 2.66669 3.15734 2.66669 3.33415V12.6675C2.66669 12.8443 2.73693 13.0139 2.86195 13.1389C2.98697 13.2639 3.15654 13.3341 3.33335 13.3341H4.66669C4.8435 13.3341 5.01307 13.2639 5.13809 13.1389C5.26312 13.0139 5.33335 12.8443 5.33335 12.6675C5.33335 12.4907 5.26312 12.3211 5.13809 12.1961C5.01307 12.0711 4.8435 12.0008 4.66669 12.0008H4.00002V4.00081H4.66669Z" fill="white"/>
		<path d="M13.88 7.61411L12 4.94745C11.898 4.80372 11.7433 4.70621 11.5697 4.67623C11.396 4.64625 11.2176 4.68623 11.0733 4.78745C11.0012 4.83797 10.9399 4.90228 10.8927 4.97665C10.8456 5.05103 10.8137 5.134 10.7988 5.22077C10.784 5.30755 10.7864 5.39641 10.8061 5.48223C10.8257 5.56805 10.8622 5.64913 10.9133 5.72078L12.06 7.33411H6.66667C6.48986 7.33411 6.32029 7.40435 6.19526 7.52938C6.07024 7.6544 6 7.82397 6 8.00078C6 8.17759 6.07024 8.34716 6.19526 8.47219C6.32029 8.59721 6.48986 8.66745 6.66667 8.66745H12L10.8 10.2674C10.7475 10.3375 10.7093 10.4172 10.6875 10.502C10.6658 10.5868 10.661 10.6751 10.6734 10.7617C10.6857 10.8484 10.7151 10.9318 10.7597 11.0071C10.8043 11.0824 10.8633 11.1483 10.9333 11.2008C11.0487 11.2873 11.1891 11.3341 11.3333 11.3341C11.4368 11.3341 11.5389 11.31 11.6315 11.2637C11.724 11.2174 11.8046 11.1502 11.8667 11.0674L13.8667 8.40078C13.952 8.28803 13.9994 8.15104 14.0018 8.00962C14.0041 7.86821 13.9615 7.7297 13.88 7.61411Z" fill="white"/>
	</symbol>

	<!-- play -->
  <symbol id="play" viewBox="0 0 16 16">
    <path d="M8 1.33447C6.68146 1.33447 5.39252 1.72547 4.2962 2.45801C3.19987 3.19055 2.34539 4.23174 1.8408 5.44992C1.33622 6.66809 1.20419 8.00853 1.46143 9.30174C1.71866 10.5949 2.3536 11.7828 3.28595 12.7152C4.2183 13.6475 5.40619 14.2825 6.6994 14.5397C7.9926 14.7969 9.33305 14.6649 10.5512 14.1603C11.7694 13.6558 12.8106 12.8013 13.5431 11.7049C14.2757 10.6086 14.6667 9.31968 14.6667 8.00114C14.6667 7.12566 14.4942 6.25875 14.1592 5.44992C13.8242 4.64108 13.3331 3.90615 12.714 3.28709C12.095 2.66804 11.3601 2.17697 10.5512 1.84194C9.74238 1.50691 8.87548 1.33447 8 1.33447ZM8 13.3345C6.94516 13.3345 5.91402 13.0217 5.03696 12.4356C4.15989 11.8496 3.47631 11.0167 3.07264 10.0421C2.66897 9.06758 2.56336 7.99522 2.76914 6.96066C2.97493 5.92609 3.48288 4.97578 4.22876 4.2299C4.97464 3.48402 5.92495 2.97607 6.95952 2.77028C7.99408 2.5645 9.06644 2.67011 10.041 3.07378C11.0155 3.47745 11.8485 4.16104 12.4345 5.0381C13.0205 5.91516 13.3333 6.94631 13.3333 8.00114C13.3333 9.41563 12.7714 10.7722 11.7712 11.7724C10.771 12.7726 9.41449 13.3345 8 13.3345Z" fill="white"/>
		<path d="M8.22666 4.9674C8.06331 4.81687 7.85932 4.71765 7.64004 4.68209C7.42077 4.64654 7.19588 4.6762 6.99333 4.7674C6.7967 4.84694 6.62825 4.9833 6.5095 5.15905C6.39075 5.3348 6.32709 5.54196 6.32666 5.75407V10.2474C6.32709 10.4595 6.39075 10.6667 6.5095 10.8424C6.62825 11.0182 6.7967 11.1545 6.99333 11.2341C7.13784 11.2996 7.29464 11.3337 7.45333 11.3341C7.73927 11.3328 8.01467 11.226 8.22666 11.0341L10.6667 8.7874C10.7758 8.68747 10.8629 8.56593 10.9226 8.43049C10.9822 8.29506 11.013 8.14871 11.013 8.00074C11.013 7.85276 10.9822 7.70641 10.9226 7.57098C10.8629 7.43555 10.7758 7.314 10.6667 7.21407L8.22666 4.9674ZM7.66666 9.73407V6.2674L9.53999 8.00074L7.66666 9.73407Z" fill="white"/>
	</symbol>

	<!-- edit -->
  <symbol id="edit" viewBox="0 0 16 16">
    <path d="M12.6667 13.3345H3.33334C3.15653 13.3345 2.98696 13.4047 2.86193 13.5297C2.73691 13.6548 2.66667 13.8243 2.66667 14.0011C2.66667 14.178 2.73691 14.3475 2.86193 14.4725C2.98696 14.5976 3.15653 14.6678 3.33334 14.6678H12.6667C12.8435 14.6678 13.0131 14.5976 13.1381 14.4725C13.2631 14.3475 13.3333 14.178 13.3333 14.0011C13.3333 13.8243 13.2631 13.6548 13.1381 13.5297C13.0131 13.4047 12.8435 13.3345 12.6667 13.3345Z" fill="white"/>
		<path d="M3.33333 12.0012H3.39333L6.17333 11.7479C6.47786 11.7175 6.76269 11.5834 6.98 11.3679L12.98 5.36787C13.2129 5.12185 13.3387 4.79355 13.33 4.4549C13.3212 4.11625 13.1786 3.79488 12.9333 3.56121L11.1067 1.73454C10.8683 1.5106 10.5559 1.38211 10.2289 1.37351C9.90191 1.3649 9.58319 1.47679 9.33333 1.68787L3.33333 7.68787C3.11784 7.90518 2.98367 8.19001 2.95333 8.49454L2.66667 11.2745C2.65769 11.3722 2.67036 11.4706 2.70377 11.5628C2.73719 11.655 2.79053 11.7387 2.86 11.8079C2.92229 11.8697 2.99617 11.9185 3.0774 11.9517C3.15862 11.9849 3.2456 12.0017 3.33333 12.0012ZM10.18 2.66787L12 4.48787L10.6667 5.78787L8.88 4.00121L10.18 2.66787ZM4.24667 8.60787L8 4.88121L9.8 6.68121L6.06667 10.4145L4.06667 10.6012L4.24667 8.60787Z" fill="white"/>
	</symbol>

	<!-- delete -->
  <symbol id="delete" viewBox="0 0 16 16">
    <path d="M14 4.00108H10.6667V2.88775C10.651 2.46096 10.4668 2.05779 10.1544 1.76661C9.84195 1.47543 9.42683 1.32001 9 1.33442H7C6.57316 1.32001 6.15804 1.47543 5.84561 1.76661C5.53319 2.05779 5.34897 2.46096 5.33333 2.88775V4.00108H1.99999C1.82318 4.00108 1.65361 4.07132 1.52859 4.19634C1.40357 4.32137 1.33333 4.49094 1.33333 4.66775C1.33333 4.84456 1.40357 5.01413 1.52859 5.13915C1.65361 5.26418 1.82318 5.33441 1.99999 5.33441H2.66666V12.6677C2.66666 13.1982 2.87738 13.7069 3.25245 14.082C3.62752 14.457 4.13623 14.6677 4.66666 14.6677H11.3333C11.8638 14.6677 12.3725 14.457 12.7475 14.082C13.1226 13.7069 13.3333 13.1982 13.3333 12.6677V5.33441H14C14.1768 5.33441 14.3464 5.26418 14.4714 5.13915C14.5964 5.01413 14.6667 4.84456 14.6667 4.66775C14.6667 4.49094 14.5964 4.32137 14.4714 4.19634C14.3464 4.07132 14.1768 4.00108 14 4.00108ZM6.66666 2.88775C6.66666 2.78108 6.80666 2.66775 7 2.66775H9C9.19333 2.66775 9.33333 2.78108 9.33333 2.88775V4.00108H6.66666V2.88775ZM12 12.6677C12 12.8446 11.9298 13.0141 11.8047 13.1392C11.6797 13.2642 11.5101 13.3344 11.3333 13.3344H4.66666C4.48985 13.3344 4.32028 13.2642 4.19526 13.1392C4.07023 13.0141 3.99999 12.8446 3.99999 12.6677V5.33441H12V12.6677Z" fill="white"/>
	</symbol>

</svg>
